<svg width="512" height="512" viewBox="0 0 64 64" fill="none" xmlns="http://www.w3.org/2000/svg">
  <defs>
    <linearGradient id="kivoraGradient" x1="8" y1="8" x2="56" y2="56" gradientUnits="userSpaceOnUse">
      <stop stop-color="#234B9B" />
      <stop offset="0.55" stop-color="#183B82" />
      <stop offset="1" stop-color="#102D63" />
    </linearGradient>
    <clipPath id="iconClip">
      <rect x="4" y="4" width="56" height="56" rx="18" />
    </clipPath>
  </defs>
  <g clip-path="url(#iconClip)">
    <rect x="4" y="4" width="56" height="56" rx="18" fill="url(#kivoraGradient)" />
    <rect x="4" y="4" width="30" height="20" rx="10" fill="#163A82" />
    <g fill="white" transform="translate(4 4)">
      <polygon points="6.3,3.5 6.58,4.1 7.25,4.2 6.78,4.67 6.9,5.33 6.3,5.02 5.7,5.33 5.82,4.67 5.35,4.2 6.02,4.1" />
      <polygon points="11.3,3.5 11.58,4.1 12.25,4.2 11.78,4.67 11.9,5.33 11.3,5.02 10.7,5.33 10.82,4.67 10.35,4.2 11.02,4.1" />
      <polygon points="16.3,3.5 16.58,4.1 17.25,4.2 16.78,4.67 16.9,5.33 16.3,5.02 15.7,5.33 15.82,4.67 15.35,4.2 16.02,4.1" />
      <polygon points="21.3,3.5 21.58,4.1 22.25,4.2 21.78,4.67 21.9,5.33 21.3,5.02 20.7,5.33 20.82,4.67 20.35,4.2 21.02,4.1" />
      <polygon points="26.3,3.5 26.58,4.1 27.25,4.2 26.78,4.67 26.9,5.33 26.3,5.02 25.7,5.33 25.82,4.67 25.35,4.2 26.02,4.1" />
      <polygon points="8.8,6.8 9.08,7.4 9.75,7.5 9.28,7.97 9.4,8.63 8.8,8.32 8.2,8.63 8.32,7.97 7.85,7.5 8.52,7.4" />
      <polygon points="13.8,6.8 14.08,7.4 14.75,7.5 14.28,7.97 14.4,8.63 13.8,8.32 13.2,8.63 13.32,7.97 12.85,7.5 13.52,7.4" />
      <polygon points="18.8,6.8 19.08,7.4 19.75,7.5 19.28,7.97 19.4,8.63 18.8,8.32 18.2,8.63 18.32,7.97 17.85,7.5 18.52,7.4" />
      <polygon points="23.8,6.8 24.08,7.4 24.75,7.5 24.28,7.97 24.4,8.63 23.8,8.32 23.2,8.63 23.32,7.97 22.85,7.5 23.52,7.4" />
      <polygon points="6.3,10.1 6.58,10.7 7.25,10.8 6.78,11.27 6.9,11.93 6.3,11.62 5.7,11.93 5.82,11.27 5.35,10.8 6.02,10.7" />
      <polygon points="11.3,10.1 11.58,10.7 12.25,10.8 11.78,11.27 11.9,11.93 11.3,11.62 10.7,11.93 10.82,11.27 10.35,10.8 11.02,10.7" />
      <polygon points="16.3,10.1 16.58,10.7 17.25,10.8 16.78,11.27 16.9,11.93 16.3,11.62 15.7,11.93 15.82,11.27 15.35,10.8 16.02,10.7" />
      <polygon points="21.3,10.1 21.58,10.7 22.25,10.8 21.78,11.27 21.9,11.93 21.3,11.62 20.7,11.93 20.82,11.27 20.35,10.8 21.02,10.7" />
      <polygon points="26.3,10.1 26.58,10.7 27.25,10.8 26.78,11.27 26.9,11.93 26.3,11.62 25.7,11.93 25.82,11.27 25.35,10.8 26.02,10.7" />
      <polygon points="8.8,13.4 9.08,14 9.75,14.1 9.28,14.57 9.4,15.23 8.8,14.92 8.2,15.23 8.32,14.57 7.85,14.1 8.52,14" />
      <polygon points="13.8,13.4 14.08,14 14.75,14.1 14.28,14.57 14.4,15.23 13.8,14.92 13.2,15.23 13.32,14.57 12.85,14.1 13.52,14" />
      <polygon points="18.8,13.4 19.08,14 19.75,14.1 19.28,14.57 19.4,15.23 18.8,14.92 18.2,15.23 18.32,14.57 17.85,14.1 18.52,14" />
      <polygon points="23.8,13.4 24.08,14 24.75,14.1 24.28,14.57 24.4,15.23 23.8,14.92 23.2,15.23 23.32,14.57 22.85,14.1 23.52,14" />
    </g>
    <path
      d="M17 23.5C22.833 20.1667 28.333 18.5 33.5 18.5C39.4 18.5 44.5667 20.3333 49 24"
      stroke="white"
      stroke-opacity="0.9"
      stroke-width="3"
      stroke-linecap="round"
    />
    <path
      d="M15 34.5C21.1667 31.1667 27.6667 29.5 34.5 29.5C40.6333 29.5 45.8 31.0333 50 34.1"
      stroke="white"
      stroke-opacity="0.92"
      stroke-width="3.2"
      stroke-linecap="round"
    />
    <path
      d="M18.5 45C23.0333 42.6667 28.0667 41.5 33.6 41.5C38.7333 41.5 43.5333 42.6333 48 44.9"
      stroke="white"
      stroke-opacity="0.82"
      stroke-width="3"
      stroke-linecap="round"
    />
    <circle cx="19" cy="45" r="3.2" fill="white" fill-opacity="0.94" />
  </g>
</svg>
